<svg width="128" height="128" viewBox="0 0 128 128" xmlns="http://www.w3.org/2000/svg">
  <rect width="128" height="128" fill="#F9FAFB" />
  <rect x="0" y="16" width="16" height="16" fill="#7E3AF2" opacity="1.0" />
  <rect x="0" y="64" width="16" height="16" fill="#7E3AF2" opacity="0.7" />
  <rect x="0" y="96" width="16" height="16" fill="#0694A2" opacity="0.9" />
  <rect x="0" y="112" width="16" height="16" fill="#7E3AF2" opacity="0.7" />
  <rect x="16" y="16" width="16" height="16" fill="#7E3AF2" opacity="0.7" />
  <rect x="16" y="32" width="16" height="16" fill="#7E3AF2" opacity="0.8" />
  <rect x="16" y="48" width="16" height="16" fill="#7E3AF2" opacity="0.7" />
  <rect x="16" y="64" width="16" height="16" fill="#0694A2" opacity="0.7" />
  <rect x="16" y="80" width="16" height="16" fill="#7E3AF2" opacity="0.7" />
  <rect x="16" y="96" width="16" height="16" fill="#7E3AF2" opacity="1.0" />
  <rect x="32" y="48" width="16" height="16" fill="#0694A2" opacity="0.9" />
  <rect x="32" y="64" width="16" height="16" fill="#7E3AF2" opacity="0.9" />
  <rect x="32" y="96" width="16" height="16" fill="#7E3AF2" opacity="0.7" />
  <rect x="48" y="0" width="16" height="16" fill="#7E3AF2" opacity="0.7" />
  <rect x="48" y="16" width="16" height="16" fill="#0694A2" opacity="0.6" />
  <rect x="48" y="32" width="16" height="16" fill="#0694A2" opacity="0.8" />
  <rect x="48" y="64" width="16" height="16" fill="#0694A2" opacity="0.6" />
  <rect x="48" y="80" width="16" height="16" fill="#0694A2" opacity="1.0" />
  <rect x="48" y="96" width="16" height="16" fill="#0694A2" opacity="0.7" />
  <rect x="48" y="112" width="16" height="16" fill="#0694A2" opacity="0.6" />
  <rect x="64" y="0" width="16" height="16" fill="#0694A2" opacity="0.7" />
  <rect x="64" y="64" width="16" height="16" fill="#7E3AF2" opacity="1.0" />
  <rect x="64" y="96" width="16" height="16" fill="#7E3AF2" opacity="0.6" />
  <rect x="80" y="16" width="16" height="16" fill="#7E3AF2" opacity="0.9" />
  <rect x="80" y="48" width="16" height="16" fill="#0694A2" opacity="0.9" />
  <rect x="80" y="64" width="16" height="16" fill="#7E3AF2" opacity="0.6" />
  <rect x="80" y="80" width="16" height="16" fill="#0694A2" opacity="0.8" />
  <rect x="80" y="96" width="16" height="16" fill="#7E3AF2" opacity="0.8" />
  <rect x="80" y="112" width="16" height="16" fill="#7E3AF2" opacity="0.5" />
  <rect x="96" y="0" width="16" height="16" fill="#0694A2" opacity="0.8" />
  <rect x="96" y="16" width="16" height="16" fill="#0694A2" opacity="0.9" />
  <rect x="96" y="32" width="16" height="16" fill="#7E3AF2" opacity="0.7" />
  <rect x="96" y="64" width="16" height="16" fill="#7E3AF2" opacity="0.6" />
  <rect x="96" y="80" width="16" height="16" fill="#7E3AF2" opacity="0.6" />
  <rect x="96" y="96" width="16" height="16" fill="#0694A2" opacity="0.9" />
  <rect x="112" y="16" width="16" height="16" fill="#7E3AF2" opacity="0.8" />
  <rect x="112" y="32" width="16" height="16" fill="#0694A2" opacity="0.6" />
  <rect x="112" y="48" width="16" height="16" fill="#7E3AF2" opacity="0.9" />
  <rect x="112" y="80" width="16" height="16" fill="#0694A2" opacity="0.8" />
  <path d="M0,0 L128,0 M0,16 L128,16 M0,32 L128,32 M0,48 L128,48 M0,64 L128,64 M0,80 L128,80 M0,96 L128,96 M0,112 L128,112 M0,128 L128,128 M0,0 L0,128 M16,0 L16,128 M32,0 L32,128 M48,0 L48,128 M64,0 L64,128 M80,0 L80,128 M96,0 L96,128 M112,0 L112,128 M128,0 L128,128 " stroke="#000" stroke-width="0.5" opacity="0.05" />
</svg>